<!-- Generator: Adobe Illustrator 17.0.0, SVG Export Plug-In  -->
<svg version="1.1"
	 xmlns="http://www.w3.org/2000/svg" xmlns:xlink="http://www.w3.org/1999/xlink" xmlns:a="http://ns.adobe.com/AdobeSVGViewerExtensions/3.0/"
	 x="0px" y="0px" width="82px" height="82px" viewBox="0 0 82 82" style="enable-background:new 0 0 82 82;" xml:space="preserve">
<style type="text/css">
	.st0{fill:#0083FF;}
	.st1{fill:#FFFFFF;}
</style>
<defs>
</defs>
<circle class="st0" cx="41" cy="41" r="41"/>
<g>
	<path class="st1" d="M59.051,50.955c-0.008,0.022-0.014,0.043-0.021,0.064c0.008-0.021,0.016-0.041,0.024-0.062
		c0.021-0.061,0.04-0.121,0.059-0.183C59.093,50.835,59.073,50.895,59.051,50.955z"/>
	<path class="st1" d="M36.422,41.236h7.185l3.87-24.961c0.328-2.117-1.253-4.119-3.532-4.473c-2.28-0.352-4.393,1.076-4.72,3.192
		l-3.469,22.368c-0.105,0.55-0.914,0.519-0.967-0.049l-0.392-4.21l-1.669-17.918c-0.198-2.138-2.221-3.749-4.517-3.599
		s-3.995,2.007-3.797,4.145l2.377,25.513h8.392L36.422,41.236z"/>
	<path class="st1" d="M59.053,50.957c0.025-0.071,0.049-0.143,0.07-0.216c-0.004,0.011-0.008,0.022-0.011,0.034
		C59.094,50.836,59.074,50.897,59.053,50.957z"/>
	<path class="st1" d="M45.812,41.236h0.607c2.294,0,4.271,1.342,5.208,3.278l1.53-8.079c0.325-1.712-0.806-3.372-2.518-3.697
		c-0.198-0.037-0.395-0.054-0.592-0.054c-1.515,0-2.822,1.083-3.105,2.571L45.812,41.236z"/>
	<path class="st1" d="M34.207,52.54c-0.032-0.021-0.059-0.037-0.085-0.054c0,0,0,0,0,0.005C34.149,52.507,34.18,52.523,34.207,52.54
		z"/>
	<path class="st1" d="M34.122,52.486c-0.011-0.005-0.026-0.016-0.037-0.021c0.011,0.011,0.026,0.016,0.037,0.026
		C34.122,52.486,34.122,52.486,34.122,52.486z"/>
	<path class="st1" d="M55.093,55.132c-2.257-0.427-3.91-2.235-4.246-4.385c-1.062,1.259-2.651,2.064-4.428,2.064h-8.632
		c0.048,0.054,0.096,0.101,0.139,0.16c1.216,1.44,2.347,3.542,2.337,6.391c0,0.299-0.122,0.565-0.315,0.757
		c-0.192,0.192-0.459,0.31-0.752,0.31c-0.592,0-1.067-0.48-1.067-1.072c0.011-4.124-3.009-6.269-3.921-6.818
		c-0.026-0.016-0.059-0.032-0.085-0.048c-0.011-0.011-0.026-0.016-0.037-0.026c-0.005-0.005-0.011-0.005-0.016-0.011
		c-0.069-0.043-0.139-0.096-0.203-0.149c-0.011-0.016-0.026-0.027-0.043-0.038c-0.437-0.39-0.72-0.955-0.72-1.59h13.316
		c0.597,0,1.157-0.144,1.648-0.395c1.19-0.603,2.006-1.835,2.006-3.26c0-0.315-0.043-0.613-0.118-0.907
		c-0.4-1.579-1.83-2.747-3.537-2.747h-9.88l-1.19,0.005l-0.427,0.005l-7.932,0.038l-0.875,0.005
		c-1.259,0.011-2.294,0.929-2.502,2.128c-0.021,0.123-0.032,0.245-0.038,0.374c0.001,0.021-0.005,0.043-0.005,0.069v2.982
		c0,0.581,0.011,1.147,0.026,1.702c0.427,15.028,5.948,19.744,17.258,19.744c12.211,0,17.242-5.794,17.935-15.951
		c-0.8,0.48-1.729,0.752-2.71,0.752C55.749,55.223,55.418,55.191,55.093,55.132z"/>
	<path class="st1" d="M23.57,50.677h0.026c-0.016-0.554-0.026-1.12-0.026-1.701V50.677z"/>
	<path class="st1" d="M60.422,38.99c-0.48-0.694-1.195-1.169-2.027-1.323c-0.198-0.037-0.395-0.059-0.592-0.059
		c-1.515,0-2.817,1.083-3.099,2.577l-1.52,8.023l1.52-8.023l-1.52,8.023l-0.214,1.131c-0.325,1.712,0.806,3.372,2.518,3.692
		c0.197,0.037,0.395,0.059,0.592,0.059c1.046,0,1.99-0.523,2.566-1.345c0.048-0.069,0.091-0.139,0.139-0.214
		c0.043-0.075,0.08-0.149,0.122-0.229c0.027-0.054,0.054-0.107,0.08-0.165c0.018-0.038,0.031-0.078,0.043-0.117
		c-0.014,0.039-0.028,0.079-0.044,0.117c-0.024,0.058-0.054,0.111-0.081,0.167c0.027-0.056,0.057-0.109,0.081-0.167
		c0.016-0.038,0.03-0.078,0.044-0.117c0.006-0.021,0.014-0.042,0.021-0.064c0.022-0.06,0.042-0.12,0.062-0.181
		c0.026-0.086,0.049-0.172,0.066-0.262l1.734-9.154C61.073,40.531,60.897,39.688,60.422,38.99z"/>
	<path class="st1" d="M59.179,50.512c-0.015,0.078-0.034,0.154-0.055,0.229C59.146,50.667,59.165,50.591,59.179,50.512z"/>
	<path class="st1" d="M59.124,50.741c0.022-0.075,0.041-0.151,0.055-0.229c-0.017,0.089-0.041,0.177-0.066,0.262
		C59.116,50.763,59.12,50.752,59.124,50.741z"/>
</g>
</svg>
